<svg xmlns="http://www.w3.org/2000/svg" width="101.937" height="101.937" viewBox="0 0 101.937 101.937">
  <g>
    <g>
      <path d="M.969,11.278V4.162A3.146,3.146,0,0,1,4.066.969h6.9" fill="none" stroke="#fff" stroke-linecap="round" stroke-miterlimit="10" stroke-width="1.937"/>
      <path d="M10.969,100.969h-6.9a3.146,3.146,0,0,1-3.1-3.193h0V90.659" fill="none" stroke="#fff" stroke-linecap="round" stroke-miterlimit="10" stroke-width="1.937"/>
      <path d="M90.969.969h6.9a3.146,3.146,0,0,1,3.1,3.193h0v7.116" fill="none" stroke="#fff" stroke-linecap="round" stroke-miterlimit="10" stroke-width="1.937"/>
      <path d="M100.969,90.659v7.116a3.147,3.147,0,0,1-3.1,3.194h-6.9" fill="none" stroke="#fff" stroke-linecap="round" stroke-miterlimit="10" stroke-width="1.937"/>
    </g>
    <g>
      <rect x="22.969" y="22.103" width="16" height="16.495" fill="none" stroke="#fff" stroke-linecap="round" stroke-miterlimit="10" stroke-width="1.614"/>
      <rect x="27.969" y="27.257" width="5" height="5.155" fill="none" stroke="#fff" stroke-linecap="round" stroke-miterlimit="10" stroke-width="1.614"/>
      <rect x="22.969" y="63.34" width="16" height="16.495" fill="none" stroke="#fff" stroke-linecap="round" stroke-miterlimit="10" stroke-width="1.614"/>
      <rect x="27.969" y="68.494" width="5" height="5.155" fill="none" stroke="#fff" stroke-linecap="round" stroke-miterlimit="10" stroke-width="1.614"/>
      <rect x="62.969" y="22.103" width="16" height="16.495" fill="none" stroke="#fff" stroke-linecap="round" stroke-miterlimit="10" stroke-width="1.614"/>
      <rect x="67.969" y="27.257" width="5" height="5.155" fill="none" stroke="#fff" stroke-linecap="round" stroke-miterlimit="10" stroke-width="1.614"/>
      <line x1="12.969" y1="45.814" x2="88.969" y2="45.814" fill="none" stroke="#fff" stroke-linecap="round" stroke-miterlimit="10" stroke-width="1.614"/>
      <path d="M43.969,24.165h7V30.35h6" fill="none" stroke="#fff" stroke-linecap="round" stroke-miterlimit="10" stroke-width="1.614"/>
      <line x1="53.969" y1="30.35" x2="53.969" y2="34.474" fill="none" stroke="#fff" stroke-linecap="round" stroke-miterlimit="10" stroke-width="1.614"/>
      <path d="M44.969,32.412v5.155h12" fill="none" stroke="#fff" stroke-linecap="round" stroke-miterlimit="10" stroke-width="1.614"/>
      <line x1="50.969" y1="37.567" x2="50.969" y2="41.69" fill="none" stroke="#fff" stroke-linecap="round" stroke-miterlimit="10" stroke-width="1.614"/>
      <path d="M20.969,57.154h7V50.969" fill="none" stroke="#fff" stroke-linecap="round" stroke-miterlimit="10" stroke-width="1.614"/>
      <path d="M32.969,52h6v5.154h8" fill="none" stroke="#fff" stroke-linecap="round" stroke-miterlimit="10" stroke-width="1.614"/>
      <path d="M43.969,58.185v6.186h7" fill="none" stroke="#fff" stroke-linecap="round" stroke-miterlimit="10" stroke-width="1.614"/>
      <line x1="50.969" y1="52" x2="50.969" y2="72.618" fill="none" stroke="#fff" stroke-linecap="round" stroke-miterlimit="10" stroke-width="1.614"/>
      <path d="M43.969,69.525v10.31h8V75.711" fill="none" stroke="#fff" stroke-linecap="round" stroke-miterlimit="10" stroke-width="1.614"/>
      <path d="M79.969,52h-5v5.154h-11v3.093" fill="none" stroke="#fff" stroke-linecap="round" stroke-miterlimit="10" stroke-width="1.614"/>
      <path d="M54.969,62.309h4V59.216" fill="none" stroke="#fff" stroke-linecap="round" stroke-miterlimit="10" stroke-width="1.614"/>
      <path d="M61.969,56.123V52h5v4.123" fill="none" stroke="#fff" stroke-linecap="round" stroke-miterlimit="10" stroke-width="1.614"/>
      <path d="M73.969,62.309h-5v5.155h-8V79.835" fill="none" stroke="#fff" stroke-linecap="round" stroke-miterlimit="10" stroke-width="1.614"/>
      <line x1="60.969" y1="72.618" x2="54.969" y2="72.618" fill="none" stroke="#fff" stroke-linecap="round" stroke-miterlimit="10" stroke-width="1.614"/>
      <path d="M65.969,78.8V73.649h6" fill="none" stroke="#fff" stroke-linecap="round" stroke-miterlimit="10" stroke-width="1.614"/>
      <path d="M78.969,69.525V78.8h-8" fill="none" stroke="#fff" stroke-linecap="round" stroke-miterlimit="10" stroke-width="1.614"/>
      <line x1="55.969" y1="24.165" x2="55.969" y2="27.257" fill="none" stroke="#fff" stroke-linecap="round" stroke-miterlimit="10" stroke-width="1.614"/>
      <line x1="78.969" y1="62.309" x2="78.969" y2="64.371" fill="none" stroke="#fff" stroke-linecap="round" stroke-miterlimit="10" stroke-width="1.614"/>
    </g>
  </g>
</svg>
